<?xml version="1.0" standalone="no"?>
<!DOCTYPE svg PUBLIC "-//W3C//DTD SVG 20010904//EN"
 "http://www.w3.org/TR/2001/REC-SVG-20010904/DTD/svg10.dtd">
<svg version="1.0" xmlns="http://www.w3.org/2000/svg"
 width="1817.000000pt" height="977.000000pt" viewBox="0 0 1817.000000 977.000000"
 preserveAspectRatio="xMidYMid meet">

<g transform="translate(0.000000,977.000000) scale(0.100000,-0.100000)"
fill="#000000" stroke="none">
<path d="M0 4885 l0 -4885 9085 0 9085 0 0 4885 0 4885 -9085 0 -9085 0 0
-4885z m4535 3851 c226 -48 392 -152 615 -382 58 -60 153 -172 210 -249 102
-137 207 -301 198 -311 -3 -2 -32 15 -64 39 -87 64 -164 107 -314 180 -138 66
-261 112 -282 105 -7 -3 39 -31 101 -64 62 -32 146 -77 187 -99 91 -48 269
-176 374 -267 198 -172 391 -424 466 -609 23 -57 69 -258 60 -266 -4 -4 -82
56 -182 140 -89 75 -263 189 -399 261 -110 59 -162 71 -87 20 24 -16 89 -63
145 -104 56 -42 134 -98 172 -125 39 -27 93 -70 120 -95 28 -25 74 -63 102
-84 67 -48 82 -70 128 -186 21 -52 73 -163 116 -247 102 -197 189 -463 189
-579 0 -109 -430 -794 -606 -966 -151 -148 -191 -183 -359 -325 -99 -83 -208
-175 -243 -204 -35 -30 -94 -79 -132 -109 -70 -56 -145 -123 -301 -267 -92
-86 -136 -119 -145 -111 -13 14 353 379 885 883 46 44 122 117 168 162 46 46
99 94 118 108 18 15 51 52 72 83 21 31 40 59 43 62 25 23 190 272 190 286 0 4
22 39 49 78 26 39 63 100 82 136 18 36 48 90 66 120 18 30 33 63 33 74 0 16
-15 49 -86 186 -7 14 -26 39 -42 57 -16 17 -57 65 -91 106 -33 41 -91 99 -128
128 -38 29 -86 70 -108 92 -22 21 -62 50 -90 64 -27 14 -68 38 -90 53 -118 80
-402 211 -570 263 -299 93 -724 140 -982 107 -290 -36 -526 -87 -678 -147 -22
-9 -67 -26 -100 -38 -157 -59 -243 -98 -321 -147 -47 -29 -113 -70 -147 -91
-123 -77 -320 -253 -378 -338 -125 -185 -159 -253 -159 -315 0 -27 12 -56 42
-103 22 -36 51 -82 63 -101 12 -19 41 -71 64 -115 105 -197 326 -498 437 -594
98 -84 710 -676 878 -847 42 -44 165 -175 186 -198 50 -58 -56 21 -160 119
-36 34 -85 75 -110 92 -25 17 -63 50 -85 73 -22 23 -62 58 -90 78 -27 19 -81
65 -120 102 -38 36 -90 80 -115 97 -25 17 -63 50 -85 73 -22 23 -71 67 -110
98 -61 49 -190 167 -263 242 -105 108 -241 282 -333 428 -148 235 -289 504
-289 554 0 127 104 463 180 585 23 35 55 103 71 150 44 123 72 183 104 221 49
58 258 227 355 287 25 16 68 47 97 70 29 24 81 59 115 78 64 35 112 77 89 77
-21 0 -245 -118 -311 -164 -36 -25 -92 -61 -124 -81 -33 -20 -91 -66 -130
-102 -39 -36 -88 -74 -110 -85 l-39 -20 7 72 c8 88 55 212 125 333 72 125 124
189 311 380 69 71 139 136 155 144 17 8 64 41 105 72 41 32 102 74 136 94 60
36 346 180 393 198 42 16 17 19 -44 4 -61 -14 -154 -51 -305 -122 -47 -22 -96
-45 -110 -52 -14 -6 -70 -40 -125 -76 -55 -36 -104 -65 -108 -65 -23 0 161
273 276 410 219 261 403 409 602 485 162 62 393 79 570 41z m5532 -2178 l253
-252 0 -656 0 -655 -152 -152 -153 -153 203 -203 202 -203 0 -675 c0 -371 -4
-680 -8 -686 -5 -7 -136 -141 -291 -298 l-283 -285 -727 2 -726 3 -3 2233 -2
2232 717 0 717 0 253 -252z m2648 12 l0 -235 -432 -5 -432 -5 -126 -124 -125
-124 0 -1501 0 -1502 128 -127 129 -127 425 0 c379 0 427 -2 432 -16 8 -20 8
-412 0 -441 l-6 -23 -552 0 -551 0 -272 272 -273 273 0 1692 0 1691 270 271
271 271 557 -2 557 -3 0 -235z m1929 223 c3 -10 46 -270 96 -578 50 -308 106
-656 125 -772 19 -117 51 -309 70 -425 19 -117 57 -352 85 -523 82 -506 138
-850 165 -1020 14 -88 48 -295 75 -460 71 -437 72 -440 68 -560 l-3 -110 -250
0 -249 0 -7 40 c-4 22 -14 87 -23 145 -40 267 -147 968 -152 998 l-6 32 -473
0 -473 0 -22 -142 c-12 -79 -37 -240 -56 -358 -19 -118 -51 -323 -71 -455 -20
-132 -41 -246 -46 -252 -7 -10 -69 -13 -248 -13 l-239 0 -1 23 c-6 156 5 262
66 622 35 209 101 596 145 860 77 454 114 675 295 1750 42 248 90 529 106 625
17 96 35 204 40 240 10 71 46 278 55 323 l6 27 458 0 c428 0 459 -1 464 -17z
m-11128 -343 c95 -18 178 -45 228 -73 12 -6 23 -12 26 -12 3 0 21 -8 40 -18
45 -21 177 -68 213 -74 20 -4 27 -1 27 10 0 8 -6 18 -12 20 -7 3 -3 6 10 6 12
1 22 -3 22 -7 0 -5 6 -9 13 -10 6 -1 73 -13 147 -26 150 -28 375 -34 549 -16
52 6 96 8 99 5 3 -2 -24 -18 -59 -35 -94 -45 -183 -97 -187 -109 -2 -5 16 -44
39 -86 32 -59 45 -75 58 -69 9 4 44 17 78 29 34 13 81 32 105 43 24 11 61 25
83 31 148 38 211 51 295 61 52 6 105 13 118 16 32 6 28 41 -10 95 -72 101
-104 144 -131 175 l-28 32 30 7 c89 19 178 -28 242 -130 87 -138 109 -218 109
-410 0 -164 -20 -298 -64 -428 -62 -182 -101 -264 -163 -338 -32 -39 -68 -84
-80 -101 -31 -44 -207 -173 -283 -209 -36 -17 -76 -37 -90 -45 -14 -8 -45 -24
-70 -36 -25 -12 -47 -25 -50 -28 -9 -11 -164 -87 -205 -100 -22 -7 -89 -33
-148 -57 -130 -51 -180 -55 -253 -18 -27 14 -89 39 -139 56 -49 17 -99 36
-110 43 -11 7 -46 23 -77 35 -34 14 -55 28 -51 34 4 6 1 7 -7 2 -7 -4 -15 -3
-19 2 -6 10 -133 73 -147 73 -4 0 -37 20 -75 45 -38 25 -73 45 -78 45 -6 0
-21 11 -35 25 -14 14 -28 25 -31 25 -3 0 -11 5 -18 10 -7 6 -31 24 -54 40 -24
17 -57 49 -74 73 -42 58 -70 96 -95 126 -28 35 -101 171 -120 223 -8 23 -28
101 -45 172 -82 345 -26 717 126 848 54 46 97 60 175 54 41 -4 121 -15 176
-26z m2337 -1828 c29 -21 81 -55 117 -77 108 -63 133 -85 119 -101 -17 -21
-30 -17 -74 23 -22 19 -79 65 -127 100 -48 36 -89 72 -92 79 -8 21 0 18 57
-24z m-3014 4 c-84 -71 -144 -118 -181 -144 -26 -18 -51 -40 -57 -49 -8 -15
-13 -15 -36 -5 -23 11 -25 15 -14 28 7 8 33 27 58 42 25 15 84 50 130 79 46
29 89 53 94 53 6 0 8 -2 6 -4z m-305 -216 c25 -10 65 -39 89 -63 44 -44 117
-144 117 -161 0 -4 -32 22 -71 59 -40 37 -90 75 -113 86 l-41 18 -22 -27 c-41
-51 -111 -198 -152 -318 -51 -149 -51 -154 -8 -144 17 4 40 11 50 15 10 4 17
3 17 -3 0 -6 10 -13 23 -15 15 -3 13 -4 -5 -2 -16 1 -28 -1 -28 -5 0 -4 -26
-11 -57 -17 -32 -6 -66 -14 -75 -18 -25 -10 -24 -1 26 175 70 244 106 339 158
413 23 32 32 33 92 7z m3660 1 c24 -26 90 -193 125 -316 32 -108 71 -259 71
-270 0 -10 -60 3 -77 16 -17 15 -17 29 2 29 22 0 19 30 -11 107 -14 37 -39
103 -54 145 -33 87 -85 195 -107 220 -14 16 -18 16 -47 1 -17 -8 -59 -38 -93
-64 -60 -47 -83 -58 -83 -41 0 4 35 42 78 84 108 107 159 130 196 89z m-2783
-404 c-12 -40 -32 -102 -47 -138 -14 -35 -35 -104 -47 -152 -12 -49 -27 -88
-32 -87 -6 0 -9 29 -8 66 3 76 50 222 138 429 20 45 16 -46 -4 -118z m1847 30
c47 -146 80 -267 92 -331 13 -77 13 -76 -9 -76 -15 0 -21 15 -35 88 -10 48
-32 139 -51 202 -59 208 -57 305 3 117z m-51 -65 c64 -199 83 -272 83 -319 0
-67 -17 -59 -40 19 -12 40 -38 120 -57 178 -25 74 -37 130 -40 190 -3 47 -2
82 3 77 4 -4 27 -69 51 -145z m-1723 96 c-22 -145 -116 -458 -137 -458 -21 0
7 129 62 293 65 190 71 207 77 207 2 0 1 -19 -2 -42z m-1031 -185 c-7 -2 -19
-2 -25 0 -7 3 -2 5 12 5 14 0 19 -2 13 -5z m234 -32 c23 -11 44 -17 47 -14 3
3 11 1 18 -4 7 -6 25 -13 40 -17 26 -6 118 -98 118 -118 0 -6 -15 1 -34 16
-19 14 -39 26 -43 26 -5 0 -20 10 -33 23 -14 12 -26 21 -27 20 -1 -1 -12 1
-24 4 -20 6 -21 7 -5 19 12 8 14 14 6 19 -6 4 -18 -1 -26 -11 -9 -12 -13 -14
-12 -5 2 8 -18 23 -52 37 -30 13 -46 23 -35 23 11 0 39 -8 62 -18z m-110 3
c-3 -3 -12 -4 -19 -1 -8 3 -5 6 6 6 11 1 17 -2 13 -5z m40 -10 c-3 -3 -12 -4
-19 -1 -8 3 -5 6 6 6 11 1 17 -2 13 -5z m-97 -63 c16 -5 -17 -10 -90 -13 -76
-4 -134 -13 -170 -26 -80 -29 -110 -44 -110 -56 0 -6 14 -39 32 -72 l32 -62
125 6 c92 4 122 2 117 -6 -4 -7 -23 -12 -43 -12 -43 0 -140 -24 -211 -52 -100
-39 -171 -157 -188 -308 -8 -74 -8 -74 -14 -30 -10 66 4 172 30 225 12 25 44
70 71 99 27 30 49 59 49 66 0 7 -17 39 -37 72 -41 67 -40 77 17 116 61 41 145
61 260 60 58 0 116 -3 130 -7z m3943 -35 c100 -48 106 -65 48 -148 l-41 -60
59 -63 c76 -81 101 -151 101 -277 0 -52 -4 -88 -10 -88 -6 0 -10 27 -10 62 0
84 -25 166 -68 224 -47 63 -135 108 -254 131 -49 9 -88 21 -88 26 0 9 119 3
181 -10 26 -5 30 -2 49 42 11 26 29 60 40 75 l20 28 -48 25 c-60 31 -122 44
-247 53 -138 10 -88 24 71 20 115 -3 123 -4 197 -40z m-3098 -166 c44 -27 76
-79 78 -128 1 -37 -15 -72 -33 -72 -4 0 -10 24 -13 53 -7 61 -36 94 -67 77
-28 -15 -68 -12 -96 6 -13 9 -27 15 -29 12 -3 -3 4 -35 16 -72 11 -38 18 -70
16 -72 -10 -10 -39 11 -53 38 -28 55 -19 122 25 172 13 15 25 17 69 13 29 -3
68 -15 87 -27z m2062 -19 c13 -19 23 -47 23 -62 0 -38 -28 -106 -46 -113 -17
-7 -17 -4 1 64 8 30 13 55 12 57 -2 1 -20 -3 -41 -9 -32 -10 -42 -9 -73 7
l-35 19 -20 -24 c-16 -20 -19 -33 -14 -73 7 -48 7 -48 -21 -45 -26 3 -28 7
-31 50 -4 59 26 121 71 149 24 15 46 19 92 17 55 -3 61 -5 82 -37z m611 -284
c38 -10 49 -20 78 -67 21 -35 38 -78 44 -114 11 -66 -3 -453 -18 -501 -19 -60
-87 -183 -171 -308 -47 -70 -104 -156 -126 -191 -22 -35 -56 -82 -76 -103 -20
-22 -54 -66 -76 -99 -23 -32 -58 -77 -79 -99 -20 -22 -55 -62 -77 -90 -111
-142 -337 -356 -447 -426 -44 -29 -194 -68 -296 -79 -65 -7 -454 -10 -1119 -8
l-1020 3 -49 24 c-39 20 -53 33 -72 75 l-24 51 0 675 c-1 371 -5 771 -10 887
-5 134 -5 226 1 248 13 47 55 94 104 116 38 18 111 19 1715 18 1245 0 1686 -4
1718 -12z m307 -121 c92 -42 190 -150 215 -237 5 -16 7 -29 5 -29 -2 0 -26 30
-53 68 -74 99 -118 136 -204 176 -43 19 -78 40 -78 46 0 15 51 5 115 -24z
m-3930 14 c-3 -5 -11 -10 -17 -10 -24 0 -155 -65 -195 -97 -23 -19 -53 -55
-66 -81 -43 -84 -67 -119 -67 -97 0 26 33 97 72 158 44 69 162 133 251 136 16
1 26 -3 22 -9z m-63 -344 c4 -6 8 -35 8 -65 0 -50 -1 -53 -22 -48 -13 3 -58
11 -100 18 -43 7 -78 15 -78 18 2 31 99 84 136 75 17 -4 25 -3 21 3 -8 13 26
13 35 -1z m4064 -26 c59 -41 57 -57 -8 -67 l-53 -7 57 -8 c77 -10 92 -19 118
-73 27 -55 25 -65 -40 -201 -51 -109 -47 -105 -131 -119 -45 -7 -54 4 -62 75
-4 30 -14 81 -22 114 -8 32 -16 79 -18 104 -2 44 -1 45 42 69 62 32 63 37 9
30 l-46 -6 -6 37 c-7 53 -4 72 11 72 7 0 13 5 13 11 0 22 89 1 136 -31z
m-4376 -41 c0 -16 -124 -111 -198 -152 -73 -41 -186 -87 -212 -87 -21 0 -8 39
23 71 49 50 134 119 146 119 6 0 11 4 11 9 0 5 8 12 18 15 9 4 31 12 48 19 32
12 164 18 164 6z m4734 -14 c8 -8 19 -15 25 -15 6 0 11 -4 11 -10 0 -5 9 -10
19 -10 27 0 169 -135 156 -148 -15 -15 -109 5 -169 35 -66 34 -187 124 -180
135 3 4 0 8 -5 8 -6 0 -11 5 -11 10 0 17 136 12 154 -5z m-4468 -46 l57 -21
-7 -67 c-18 -166 -32 -270 -37 -276 -11 -11 -161 13 -171 27 -4 7 -11 24 -14
38 -3 14 -19 61 -35 106 -21 55 -28 88 -24 107 12 45 98 101 162 106 7 1 38
-9 69 -20z m-276 -403 c0 -3 -4 -8 -10 -11 -5 -3 -10 -1 -10 4 0 6 5 11 10 11
6 0 10 -2 10 -4z m351 -398 c39 -17 38 -44 -2 -52 -81 -16 -269 0 -269 22 0
32 213 56 271 30z m4834 -92 c195 -5 243 -20 94 -31 -154 -10 -380 -8 -409 4
-23 9 -21 10 20 11 34 1 40 3 25 10 -13 5 2 7 40 4 43 -3 56 -1 45 6 -11 8 -9
9 10 5 14 -3 93 -7 175 -9z m-5938 -2 c-3 -3 -12 -4 -19 -1 -8 3 -5 6 6 6 11
1 17 -2 13 -5z m545 -12 c10 -10 6 -12 -17 -10 -17 1 -35 6 -42 10 -7 6 -15 3
-20 -7 -8 -14 -36 -16 -219 -16 -115 0 -231 4 -259 9 -40 8 -44 10 -18 11 17
0 34 4 36 9 3 4 122 7 266 7 195 0 263 -3 273 -13z m328 -205 l125 -12 -86
-12 c-94 -14 -388 -16 -459 -4 -31 6 -36 9 -17 10 15 0 27 5 27 9 0 12 173 30
235 26 28 -2 106 -10 175 -17z m4647 6 c-3 -5 39 -8 94 -8 66 0 100 -4 103
-12 7 -18 -156 -25 -389 -16 -258 10 -276 26 -38 33 93 3 183 7 201 8 18 1 31
-1 29 -5z"/>
<path d="M4090 7196 c-73 -14 -147 -35 -396 -117 -67 -22 -146 -46 -176 -54
-63 -16 -262 -107 -272 -124 -10 -15 -14 -16 110 30 167 62 214 76 414 124
431 104 624 108 1015 19 302 -69 341 -80 513 -146 57 -22 105 -38 108 -35 12
11 -201 108 -301 137 -201 57 -310 92 -349 112 -22 11 -81 29 -130 39 -122 25
-431 34 -536 15z"/>
<path d="M8920 5612 l0 -719 321 2 320 1 109 109 110 110 0 500 0 500 -108
108 -107 107 -323 0 -322 0 0 -718z"/>
<path d="M8920 3620 l0 -800 333 0 333 0 147 148 147 149 0 504 -1 504 -144
148 -145 147 -335 0 -335 0 0 -800z"/>
<path d="M14120 6266 c0 -3 -14 -89 -30 -193 -52 -323 -77 -485 -144 -913 -36
-228 -90 -572 -120 -764 -31 -192 -53 -353 -50 -358 6 -10 781 -11 787 0 5 7
-11 119 -102 717 -42 272 -51 335 -161 1060 -33 220 -63 412 -66 428 -5 25 -9
27 -60 27 -30 0 -54 -2 -54 -4z"/>
<path d="M3355 6372 c-17 -10 -45 -35 -63 -56 -40 -46 -95 -153 -88 -172 3 -8
20 -14 41 -14 58 0 224 -28 325 -55 106 -28 173 -53 274 -102 38 -18 70 -33
71 -33 4 0 88 180 84 183 -23 20 -259 142 -300 156 -30 10 -96 39 -147 65
-103 51 -148 57 -197 28z"/>
<path d="M3465 5982 c-54 -19 -149 -78 -177 -109 -10 -10 -34 -50 -54 -88 -31
-60 -35 -76 -30 -114 19 -141 147 -293 278 -333 21 -6 38 -17 38 -25 0 -17 4
-17 48 6 20 10 62 26 92 35 30 10 102 33 159 53 l104 36 -7 99 c-8 132 -20
178 -67 273 -30 62 -50 88 -86 114 -95 70 -198 88 -298 53z m4 -149 c-18 -31
-23 -53 -23 -119 -1 -72 2 -85 27 -121 44 -64 97 -88 192 -88 89 1 133 18 162
61 20 31 27 21 37 -48 7 -47 7 -47 -35 -74 -145 -91 -274 -111 -371 -57 -29
17 -67 49 -85 71 -37 49 -73 139 -79 202 -5 41 -2 49 33 91 42 52 128 119 150
119 12 0 10 -8 -8 -37z"/>
<path d="M4932 5974 c-81 -41 -154 -117 -175 -184 -24 -72 -49 -241 -45 -299
l3 -46 65 -24 c252 -92 337 -118 333 -102 -3 13 10 21 56 35 34 10 78 31 98
47 39 31 115 138 139 195 38 91 2 208 -91 293 -82 74 -150 104 -249 109 -73 3
-87 1 -134 -24z m241 -115 c80 -40 157 -134 157 -191 0 -41 -37 -166 -60 -202
-29 -47 -63 -71 -142 -96 -62 -21 -68 -21 -125 -7 -32 9 -103 37 -157 62 l-98
47 7 46 c9 64 12 66 45 38 42 -35 95 -50 170 -50 88 0 136 24 175 88 41 68 42
156 2 234 -15 28 -25 52 -22 52 3 0 25 -9 48 -21z"/>
<path d="M4415 5189 c-48 -22 -125 -24 -180 -4 -46 16 -51 14 -35 -14 14 -27
81 -61 120 -61 41 0 103 32 124 65 10 15 16 28 14 29 -2 2 -21 -5 -43 -15z"/>
<path d="M4155 4896 c-5 -3 -40 -7 -77 -11 -51 -5 -68 -10 -68 -21 0 -13 15
-14 108 -7 121 9 315 7 413 -5 36 -4 71 -6 77 -4 22 7 12 30 -15 36 -32 8
-423 18 -438 12z"/>
<path d="M4195 4770 c8 -13 195 -13 215 0 10 7 -23 10 -103 10 -76 0 -116 -4
-112 -10z"/>
<path d="M2780 3800 c-13 -8 -12 -10 3 -10 9 0 17 5 17 10 0 12 -1 12 -20 0z"/>
<path d="M4405 2550 c-34 -22 -65 -74 -65 -107 0 -29 6 -29 47 3 31 23 73 89
73 114 0 16 -22 12 -55 -10z"/>
<path d="M4149 2387 c-66 -35 -84 -74 -84 -182 0 -78 4 -97 28 -147 16 -33 45
-70 67 -88 l39 -31 78 12 c68 10 83 10 109 -4 56 -29 138 15 178 95 l25 49
-34 44 c-18 24 -36 58 -40 75 -7 31 8 91 31 125 25 35 17 52 -29 64 -33 10
-62 10 -120 2 -51 -7 -93 -7 -128 -1 -69 13 -70 13 -120 -13z"/>
<path d="M2128 1573 c6 -2 18 -2 25 0 6 3 1 5 -13 5 -14 0 -19 -2 -12 -5z"/>
</g>
</svg>
